<svg id="Layer_1" data-name="Layer 1" xmlns="http://www.w3.org/2000/svg" viewBox="0 0 612 792"><defs><style>.cls-1{fill:#5f3b1e;}</style></defs><title>Untitled-1</title><path class="cls-1" d="M131.28,488.91a14.23,14.23,0,0,1-14.19-14.19V376.53l158.39-153H443.67a14.24,14.24,0,0,1,14.19,14.2v32.38a129.56,129.56,0,0,1,43.32,16.63V200.27a17.85,17.85,0,0,0-17.8-17.8H91.57a17.85,17.85,0,0,0-17.8,17.8V513.82a17.85,17.85,0,0,0,17.8,17.8H342.86V492.05c-1.05-1-2.07-2.08-3.09-3.14Zm0-265.41h62.33l-76.52,72.75V237.7A14.24,14.24,0,0,1,131.28,223.5Z"/><path class="cls-1" d="M363.1,508.13V626l70.67-37.35L504.45,626V508.12a129.82,129.82,0,0,1-141.35,0Z"/><path class="cls-1" d="M433.77,293A105.44,105.44,0,1,0,539.21,398.41,105.44,105.44,0,0,0,433.77,293ZM479.9,462.19l-46.13-33.52-46.13,33.52L405.27,408l-46.13-33.51h57l17.61-54.22,17.62,54.22h57L462.28,408Z"/></svg>