<svg id="Layer_1" data-name="Layer 1" xmlns="http://www.w3.org/2000/svg" viewBox="0 0 612 792"><defs><style>.cls-1{fill:#5f3b1e;}</style></defs><title>Untitled-1</title><path class="cls-1" d="M512.56,188.86H105.81a32.22,32.22,0,0,0-32.1,32.27V476a32.22,32.22,0,0,0,32.1,32.27h163.1c-.34,5.53-.93,11.54-1.89,17.72a175.68,175.68,0,0,1-10.53,36.85h-36a10.43,10.43,0,0,0,0,20.85H403a10.43,10.43,0,0,0,0-20.85H367A188.9,188.9,0,0,1,356.48,526a176.12,176.12,0,0,1-2.11-17.72H512.56A32.22,32.22,0,0,0,544.65,476V221.13A32.22,32.22,0,0,0,512.56,188.86Zm-200.81,299a9.57,9.57,0,1,1,9.52-9.57A9.55,9.55,0,0,1,311.75,487.81Zm193.82-46.43H117.92V233.23H505.57Z"/></svg>