<svg id="Layer_1" data-name="Layer 1" xmlns="http://www.w3.org/2000/svg" viewBox="0 0 481.6 386.8"><defs><style>.cls-1{fill:#784a26;}</style></defs><title>icon-refer</title><path class="cls-1" d="M302.5,533.1l9.7-39.8c12.7,11.7,36.5,2,36.5,2l18.5-75.8-57,50.5L260,522.1C263.8,531.6,273.6,542.9,302.5,533.1Z" transform="translate(-64.5 -160.5)"/><path class="cls-1" d="M402.1,390.4,380,410.5c6.2,4.2,10.3,6.7,11.2,7.3a11.52,11.52,0,0,0,12.6-.1c5.8-3.8,142.3-93.2,142.3-169.6a87.54,87.54,0,0,0-148.8-62.6,87.54,87.54,0,0,0-148.8,62.6c0,30.9,20.1,62.5,45.2,89.9l18.2-14.9c-22.6-24.4-39.9-51.1-39.9-75a64.05,64.05,0,0,1,115.8-37.8,11.75,11.75,0,0,0,9.5,4.8h0a11.89,11.89,0,0,0,9.5-4.8,64.05,64.05,0,0,1,115.8,37.8C522.6,296.2,443.9,361.2,402.1,390.4Z" transform="translate(-64.5 -160.5)"/><path class="cls-1" d="M230.1,524.2l66.2-69.5,85.8-73.1c11.7-9.4,12.8-30.3,0-45.5-16.4-19.5-34.6-15-43.1-8.6l-85.6,69.6c0-13.4,1.5-54.7,1.6-69.3-16.3-22.7-25.9-44.7-28.9-65.8-16.1,10.3-27.2,17.8-27.2,17.8L106.3,404.1,64.5,421.5V547.3l116.4-1.7C206.3,544.3,219.3,535.9,230.1,524.2Z" transform="translate(-64.5 -160.5)"/></svg>