<svg id="Layer_1" data-name="Layer 1" xmlns="http://www.w3.org/2000/svg" viewBox="0 0 490.97 462.5"><defs><style>.cls-1{fill:#784a26;}</style></defs><title>icon-manage</title><path class="cls-1" d="M64.6,403.1l58.9,92.5a54.07,54.07,0,0,1,15.8-15.8L90.2,402.7,209,349.9l62,97.5,8.9-26.6L224,333.2c-4.7-7.3-10.2-9.1-17.6-6L68.5,388.5C62.5,391.1,60.7,397,64.6,403.1Z" transform="translate(-62.53 -106)"/><path class="cls-1" d="M531.3,396.5c-11.2-70.5-51-101.4-103.9-101.4-38.5,0-73.9,21.4-94.1,71.1L284.1,482l-87.2,8.5,12.8-32.8a15.58,15.58,0,0,0-29-11.4l-19,48.5c-14.4,4.4-24.5,15.3-24.5,35.9,0,24.6,15.9,37.8,43.1,37.8H320.5c20.4,0,36-11.4,46-31.7,13.7-27.8,36.9-75.8,51.4-105.9l26,7.1L386.2,555.3H553.5Z" transform="translate(-62.53 -106)"/><path class="cls-1" d="M257.6,197.2A91.2,91.2,0,1,0,348.8,106,91.22,91.22,0,0,0,257.6,197.2Z" transform="translate(-62.53 -106)"/></svg>