<svg id="Layer_1" data-name="Layer 1" xmlns="http://www.w3.org/2000/svg" viewBox="0 0 612 792"><defs><style>.cls-1{fill:#5f3b1e;}</style></defs><title>Untitled-1</title><path class="cls-1" d="M193.14,546.4,165.8,518.48A7.48,7.48,0,0,1,176.49,508l27.33,27.92,23.71-23.21-51.18-52.27A7.48,7.48,0,0,1,187,450l51.18,52.26,23.7-23.21-27.34-27.92a7.48,7.48,0,1,1,10.69-10.46l27.33,27.92,23.71-23.22-51.17-52.26a7.47,7.47,0,0,1,10.68-10.46L307,434.91l23.71-23.22-27.34-27.92a7.48,7.48,0,0,1,10.69-10.46l27.34,27.92L365.09,378l-51.17-52.26a7.48,7.48,0,1,1,10.68-10.47l51.18,52.27,23.71-23.22-27.34-27.91A7.48,7.48,0,0,1,382.84,306l27.33,27.92,23.71-23.21L382.7,258.4a7.48,7.48,0,0,1,10.69-10.46l51.17,52.26L468.27,277l-27.34-27.92a7.48,7.48,0,0,1,10.69-10.46L479,266.53l37.48-36.7-79-80.71a21.21,21.21,0,0,0-30-.31L74.74,474.58a21.19,21.19,0,0,0-.31,30l79,80.7Z"/><path class="cls-1" d="M530.5,244.2l-3.6-3.68L163.92,596l3.6,3.68a21.2,21.2,0,0,0,30,.32L530.18,274.18A21.2,21.2,0,0,0,530.5,244.2Z"/></svg>