<svg id="Layer_1" data-name="Layer 1" xmlns="http://www.w3.org/2000/svg" viewBox="0 0 438.14 428.7"><defs><style>.cls-1{fill:#784a26;}</style></defs><title>icon-identify</title><path class="cls-1" d="M533.6,420a86.06,86.06,0,0,0-9.1-38.6c-1.5,20-15,38.5-38.8,51.9-38,23-80,33.9-117.3,38.6V584.6H524Z" transform="translate(-95.46 -156)"/><path class="cls-1" d="M95.5,423.5V584.7H254.1l2.7-138.2a409.41,409.41,0,0,0,59.7,4.3c44.2,0,105-7,157-38.5,15.6-8.8,32.9-24,24.9-44.7-7.7-20.1-26.3-25.9-42-19.9-37.2,14-69.8,20.3-99.4,20.3-39.2,0-72.4-9-100.4-15.7-18.7-4.5-57.3-12.2-75.8-12.2C91.1,340.1,95.5,423.5,95.5,423.5Z" transform="translate(-95.46 -156)"/><path class="cls-1" d="M468.1,264A76.1,76.1,0,1,0,392,340.1,76.14,76.14,0,0,0,468.1,264Z" transform="translate(-95.46 -156)"/><path class="cls-1" d="M281.4,237.5A81.5,81.5,0,1,0,199.9,319,81.51,81.51,0,0,0,281.4,237.5Z" transform="translate(-95.46 -156)"/></svg>